<?xml version="1.0" encoding="UTF-8"?>
<svg id="Layer_1" data-name="Layer 1" xmlns="http://www.w3.org/2000/svg" width="236.18" height="240.72" viewBox="0 0 236.18 240.72">
  <defs>
    <style>
      .cls-1 {
        fill: #4164af;
      }

      .cls-1, .cls-2 {
        stroke-width: 0px;
      }

      .cls-2 {
        fill: #fff;
      }
    </style>
  </defs>
  <rect class="cls-1" width="236.18" height="240.72" rx="22.91" ry="22.91"/>
  <polygon class="cls-2" points="119.6 65.9 101.92 140.61 109.18 165.68 129.77 165.76 136.61 140.18 119.6 65.9"/>
  <polygon class="cls-2" points="102.65 126.61 85.71 84.94 95.16 65.9 116.13 65.9 102.65 126.61"/>
  <polygon class="cls-2" points="101.85 130.99 83.19 86.69 60.48 104.6 83.59 122.62 101.85 130.99"/>
  <polygon class="cls-2" points="60.87 126.35 85.71 141.78 99.7 141.64 106.79 166.2 85.76 171.96 63.52 147.33 60.87 126.35"/>
  <polygon class="cls-2" points="87.16 179.7 102.54 191.5 117.83 180.35 107.58 168.18 86.39 174.37 87.16 179.7"/>
  <polygon class="cls-2" points="56.02 46.32 74.81 89.39 59.74 101.78 56.02 46.32"/>
  <polygon class="cls-2" points="57.43 45.25 77.67 87.88 83.72 82.87 92.52 65.7 57.43 45.25"/>
  <polygon class="cls-2" points="60.13 107.18 81.82 124.3 69.99 128.6 60.56 122.77 65.05 115.83 60.13 107.18"/>
  <polygon class="cls-2" points="71.6 130 83.45 125.6 101.5 132.92 99.75 139.06 91.43 139.06 86.58 139.06 71.6 130"/>
  <polygon class="cls-2" points="119.35 181.6 104.13 192.39 119.3 196.87 134.67 192.39 119.35 181.6"/>
  <polygon class="cls-2" points="109.18 165.68 119.44 178.75 129.77 165.76 109.18 165.68"/>
  <polygon class="cls-2" points="84.6 174.34 63.66 150.48 67.1 167.71 85.33 178.85 84.6 174.34"/>
  <polygon class="cls-2" points="136.27 125.6 152.62 85.39 143.5 65.9 122.6 65.9 136.27 125.6"/>
  <polygon class="cls-2" points="137.12 130.24 155.13 87.88 176.85 104.72 155.28 122.22 137.12 130.24"/>
  <polygon class="cls-2" points="177.78 126.35 153.33 141.45 139.24 142.05 132.15 166.28 152.62 172.15 175.28 146.2 177.78 126.35"/>
  <polygon class="cls-2" points="151.49 179.7 136.11 191.5 121.3 180.7 130.88 168.59 152.2 174.81 151.49 179.7"/>
  <polygon class="cls-2" points="182.64 46.32 163.51 90.15 178.84 102.84 182.64 46.32"/>
  <polygon class="cls-2" points="180.17 45.86 160.77 88.35 155.28 83.27 146.74 65.35 180.17 45.86"/>
  <polygon class="cls-2" points="178.53 107.18 156.84 124.3 169 128.72 178.1 122.77 173.97 115.83 178.53 107.18"/>
  <polygon class="cls-2" points="167.06 130 154.77 125.44 136.8 132.81 139.08 139.57 147.23 139.06 152.71 138.77 167.06 130"/>
  <polygon class="cls-2" points="154 174.7 175.09 150.03 171.55 167.71 153.33 178.85 154 174.7"/>
</svg>